<?xml version="1.0" encoding="utf-8"?>
<svg version="1.1" xmlns:xlink="http://www.w3.org/1999/xlink" width="36px" height="29px" xmlns="http://www.w3.org/2000/svg">
  <g transform="matrix(1 0 0 1 -198 -528 )">
    <path d="M 29.5546875 16.5579427083333  C 29.8515625 16.3187934027778  30 16.0355902777778  30 15.7083333333333  L 30 13.2916666666667  C 30 12.9644097222222  29.8515625 12.6812065972222  29.5546875 12.4420572916667  C 29.2578125 12.2029079861111  28.90625 12.0833333333333  28.5 12  L 7.5 12  C 7.09375 12.0833333333333  6.7421875 12.2029079861111  6.4453125 12.4420572916667  C 6.1484375 12.6812065972222  6 12.9644097222222  6 13.2916666666667  L 6 15.7083333333333  C 6 16.0355902777778  6.1484375 16.3187934027778  6.4453125 16.5579427083333  C 6.7421875 16.7970920138889  7.09375 16.9166666666667  7.5 17  L 28.5 17  C 28.90625 16.9166666666667  29.2578125 16.7970920138889  29.5546875 16.5579427083333  Z M 34.01953125 1.59537760416667  C 35.33984375 2.65896267361111  36 3.93967013888888  36 5.4375  L 36 23.5625  C 36 25.0603298611111  35.33984375 26.3410373263889  34.01953125 27.4046223958333  C 32.69921875 28.4682074652778  31.109375 29  29.25 29  L 6.75 29  C 4.890625 29  3.30078125 28.4682074652778  1.98046875 27.4046223958333  C 0.66015625 26.3410373263889  0 25.0603298611111  0 23.5625  L 0 5.4375  C 0 3.93967013888888  0.66015625 2.65896267361111  1.98046875 1.59537760416667  C 3.30078125 0.53179253472222  4.890625 0  6.75 0  L 29.25 0  C 31.109375 0  32.69921875 0.53179253472222  34.01953125 1.59537760416667  Z " fill-rule="nonzero" fill="#000000" stroke="none" transform="matrix(1 0 0 1 198 528 )" />
  </g>
</svg>