<?xml version="1.0" encoding="utf-8"?>
<svg version="1.1" xmlns:xlink="http://www.w3.org/1999/xlink" width="33px" height="28px" xmlns="http://www.w3.org/2000/svg">
  <g transform="matrix(1 0 0 1 -343 -528 )">
    <path d="M 27.091796875 15.9869791666667  C 27.3639322916667 15.7560763888889  27.5 15.4826388888889  27.5 15.1666666666667  L 27.5 12.8333333333333  C 27.5 12.5173611111111  27.3639322916667 12.2439236111111  27.091796875 12.0130208333333  C 26.8196614583333 11.7821180555556  26.4973958333333 11.6666666666667  26.125 11.6666666666667  L 19.25 11.6666666666667  L 19.25 5.83333333333333  C 19.25 5.51736111111111  19.1139322916667 5.24392361111111  18.841796875 5.01302083333333  C 18.5696614583333 4.78211805555555  18.2473958333333 4.66666666666667  17.875 4.66666666666667  L 15.125 4.66666666666667  C 14.7526041666667 4.66666666666667  14.4303385416667 4.78211805555555  14.158203125 5.01302083333333  C 13.8860677083333 5.24392361111111  13.75 5.51736111111111  13.75 5.83333333333333  L 13.75 11.6666666666667  L 6.875 11.6666666666667  C 6.50260416666667 11.6666666666667  6.18033854166667 11.7821180555556  5.908203125 12.0130208333333  C 5.63606770833333 12.2439236111111  5.5 12.5173611111111  5.5 12.8333333333333  L 5.5 15.1666666666667  C 5.5 15.4826388888889  5.63606770833333 15.7560763888889  5.908203125 15.9869791666667  C 6.18033854166667 16.2178819444444  6.50260416666667 16.3333333333333  6.875 16.3333333333333  L 13.75 16.3333333333333  L 13.75 22.1666666666667  C 13.75 22.4826388888889  13.8860677083333 22.7560763888889  14.158203125 22.9869791666667  C 14.4303385416667 23.2178819444444  14.7526041666667 23.3333333333333  15.125 23.3333333333333  L 17.875 23.3333333333333  C 18.2473958333333 23.3333333333333  18.5696614583333 23.2178819444444  18.841796875 22.9869791666667  C 19.1139322916667 22.7560763888889  19.25 22.4826388888889  19.25 22.1666666666667  L 19.25 16.3333333333333  L 26.125 16.3333333333333  C 26.4973958333333 16.3333333333333  26.8196614583333 16.2178819444444  27.091796875 15.9869791666667  Z M 31.1845703125 1.54036458333333  C 32.3948567708333 2.56727430555555  33 3.80381944444444  33 5.25  L 33 22.75  C 33 24.1961805555556  32.3948567708333 25.4327256944444  31.1845703125 26.4596354166667  C 29.9742838541667 27.4865451388889  28.5169270833333 28  26.8125 28  L 6.1875 28  C 4.48307291666667 28  3.02571614583333 27.4865451388889  1.8154296875 26.4596354166667  C 0.605143229166667 25.4327256944444  0 24.1961805555556  0 22.75  L 0 5.25  C 0 3.80381944444444  0.605143229166667 2.56727430555555  1.8154296875 1.54036458333333  C 3.02571614583333 0.513454861111109  4.48307291666667 0  6.1875 0  L 26.8125 0  C 28.5169270833333 0  29.9742838541667 0.513454861111109  31.1845703125 1.54036458333333  Z " fill-rule="nonzero" fill="#000000" stroke="none" transform="matrix(1 0 0 1 343 528 )" />
  </g>
</svg>