<?xml version="1.0" encoding="utf-8"?>
<svg version="1.1" xmlns:xlink="http://www.w3.org/1999/xlink" width="38px" height="40px" xmlns="http://www.w3.org/2000/svg">
  <g transform="matrix(1 0 0 1 -320 -455 )">
    <path d="M 339 455  C 349.64 455  358 463.8  358 475  C 358 486.2  349.64 495  339 495  C 328.36 495  320 486.2  320 475  C 320 463.8  328.36 455  339 455  Z " fill-rule="nonzero" fill="#555555" stroke="none" fill-opacity="0.796078431372549" />
    <path d="M 339 455.5  C 349.36 455.5  357.5 464.08  357.5 475  C 357.5 485.92  349.36 494.5  339 494.5  C 328.64 494.5  320.5 485.92  320.5 475  C 320.5 464.08  328.64 455.5  339 455.5  Z " stroke-width="1" stroke="#797979" fill="none" />
  </g>
</svg>